<svg id="Calque_2" data-name="Calque 2" xmlns="http://www.w3.org/2000/svg" viewBox="0 0 290.85 236.06"><defs><style>.cls-1{fill:#27aae1;}.cls-2{fill:#231e60;}.cls-3{fill:#3ec2cf;}.cls-4{fill:#ed0f69;}.cls-5{fill:#f04e23;}.cls-6{fill:#fcaf17;}.cls-7{fill:#a6ce39;}</style></defs><title>logo</title><path class="cls-1" d="M197.7,303.47a11.52,11.52,0,0,0,2.85-7.86,12.21,12.21,0,0,0-1.88-6.6c-2.46-3.85-7-5.79-13.58-5.79H174.6V328.5h13.61a16.52,16.52,0,0,0,10.71-3.56,13,13,0,0,0,4.88-10.54,13.31,13.31,0,0,0-1.17-5.52A12.79,12.79,0,0,0,197.7,303.47Zm-6.46-7.84a3.88,3.88,0,0,1-.69,2.24,4.35,4.35,0,0,1-2.67,1.73,17.76,17.76,0,0,1-4.16.39v-7.66h2.06C191.24,292.33,191.24,294.48,191.24,295.63Zm-7.52,13.53a30.1,30.1,0,0,1,6.21.42,6.5,6.5,0,0,1,3.35,1.8,4.47,4.47,0,0,1,.42,5.57,4.91,4.91,0,0,1-2.88,2,18.9,18.9,0,0,1-4.72.43h-2.38Z" transform="translate(-107.07 -134.05)"/><path class="cls-1" d="M233.85,282.21a23.19,23.19,0,0,0-20.37,11.9A24.25,24.25,0,0,0,210.41,306a22.55,22.55,0,0,0,6.93,16.71,23.27,23.27,0,0,0,16.84,6.76,23.77,23.77,0,0,0,16.65-40.59A23.47,23.47,0,0,0,233.85,282.21Zm12.78,31.1a13.45,13.45,0,0,1-5.22,5.2,14.66,14.66,0,0,1-7.36,1.9,13.68,13.68,0,0,1-10.2-4.16A13.86,13.86,0,0,1,219.71,306a14.86,14.86,0,0,1,1.9-7.46,14,14,0,0,1,5.26-5.28,13.84,13.84,0,0,1,7.17-2,14.39,14.39,0,0,1,7.3,2c4.84,2.77,7.19,6.88,7.19,12.54A15,15,0,0,1,246.63,313.31Z" transform="translate(-107.07 -134.05)"/><path class="cls-1" d="M288,282.21a23.19,23.19,0,0,0-11.74,3.13,23,23,0,0,0-8.61,8.77A24.05,24.05,0,0,0,264.53,306a22.52,22.52,0,0,0,6.94,16.71,23.24,23.24,0,0,0,16.83,6.76A23.78,23.78,0,0,0,305,288.9,23.57,23.57,0,0,0,288,282.21Zm12.79,31.1a13.47,13.47,0,0,1-5.23,5.2,14.6,14.6,0,0,1-7.36,1.9A13.66,13.66,0,0,1,278,316.25,13.82,13.82,0,0,1,273.84,306a14.81,14.81,0,0,1,1.9-7.46,14.08,14.08,0,0,1,5.25-5.28,13.87,13.87,0,0,1,7.18-2,14.39,14.39,0,0,1,7.3,2c4.83,2.77,7.18,6.88,7.18,12.54A14.84,14.84,0,0,1,300.76,313.31Z" transform="translate(-107.07 -134.05)"/><polygon class="cls-1" points="225.78 169.87 247.99 149.17 234.98 149.17 222.56 160.83 222.56 149.17 213.32 149.17 213.32 194.45 222.56 194.45 222.56 179.67 236.49 194.45 248.91 194.45 225.78 169.87"/><polygon class="cls-2" points="105.7 229.49 50.13 236.06 44.03 184.91 53.95 183.74 58.88 224.95 104.54 219.59 105.7 229.49"/><polygon class="cls-2" points="260.19 55.93 250.28 57.09 244.84 11.09 198.49 16.56 197.33 6.65 253.59 0 260.19 55.93"/><polygon class="cls-2" points="277.59 212.24 221.3 218.88 220.15 208.96 266.5 203.49 261.07 157.47 270.98 156.29 277.59 212.24"/><path class="cls-2" d="M146.23,183.25,144.3,166.6,190,161.22l-1.17-9.92-55.54,6.55,3.07,26.49C146.23,183.25,136,184.33,146.23,183.25Z" transform="translate(-107.07 -134.05)"/><path class="cls-3" d="M235,228.3q2.66,13.14-4,21.69-8,10.54-24.3,11.46-13.34.74-21.22-7.68a26.06,26.06,0,0,1-6.42-13.32,37.07,37.07,0,0,1-.67-5.16q-.75-13.64,9.23-21.21a32.6,32.6,0,0,1,14.1-6.08,42.75,42.75,0,0,1,5.64-.69q9.6-.54,16.48,3.8Q232.71,216.58,235,228.3Zm-19.62,3.88a18.36,18.36,0,0,0-3.33-7.91c-2-2.57-4.46-3.6-7.39-3.05a7.6,7.6,0,0,0-6,5.54,18.25,18.25,0,0,0-.19,8.77q2.67,13.51,11.15,11.89,6.94-1.44,6.44-10.75A30.43,30.43,0,0,0,215.39,232.18Z" transform="translate(-107.07 -134.05)"/><path class="cls-4" d="M291.54,225.16q2.65,13.14-4,21.69-8,10.56-24.3,11.46-13.34.75-21.22-7.68a26,26,0,0,1-6.42-13.31,35.8,35.8,0,0,1-.67-5.16q-.75-13.64,9.22-21.22a32.71,32.71,0,0,1,14.1-6.08,44.72,44.72,0,0,1,5.64-.69c6.41-.36,11.9.92,16.48,3.8Q289.25,213.45,291.54,225.16ZM271.92,229a18.32,18.32,0,0,0-3.33-7.9q-3-3.87-7.39-3a7.57,7.57,0,0,0-6,5.53,18.13,18.13,0,0,0-.19,8.77q2.67,13.53,11.15,11.9,6.94-1.44,6.43-10.75A30.43,30.43,0,0,0,271.92,229Z" transform="translate(-107.07 -134.05)"/><path class="cls-5" d="M350.94,206.17l-4.86,40.72q-1.47,11.91-4.84,17c-3,4.4-8.13,6.8-15.29,7.2a50,50,0,0,1-20.48-2.91q-8.94-3.35-11.89-9.54a12.45,12.45,0,0,1-1.37-5.7l20,2.46a3,3,0,0,0,1.61,3,7.65,7.65,0,0,0,3.44,1.16,11.19,11.19,0,0,0,2.41.15q5.76-.33,6.82-9l.54-4.17a19.44,19.44,0,0,1-10.85,4,23.16,23.16,0,0,1-4.14-.16q-13.58-1.55-17.74-14.22a27.27,27.27,0,0,1-1.16-12.26,30.27,30.27,0,0,1,7.59-17.47,18.28,18.28,0,0,1,12.87-5.71A21.14,21.14,0,0,1,326.64,204a19.07,19.07,0,0,1,5.95,6.69l.77-6.49Zm-21.6,18.34q-.45-7.87-7.22-8.65a7.93,7.93,0,0,0-1.65-.1q-6.33.36-7.59,10.63a16.3,16.3,0,0,0-.06,2.4q.42,7.5,6.72,8.3a7.25,7.25,0,0,0,8.13-4.31A15.72,15.72,0,0,0,329.34,224.51Z" transform="translate(-107.07 -134.05)"/><path class="cls-6" d="M397.93,194.23,392.12,244c-.5,4.72-.91,7.75-1.22,9.12a22.66,22.66,0,0,1-3.19,8.55q-3.56,5.21-15.83,7.9c-.95.18-2.4.41-4.34.68a38.21,38.21,0,0,0-4.34.77l-3-13.79,4-.81c4.26-.87,6.17-2.49,5.71-4.83a14.19,14.19,0,0,0-1.64-3.57l-26-41.79L361.87,202l15.36,28.71,1.87-32.35Z" transform="translate(-107.07 -134.05)"/><path class="cls-7" d="M180.07,239.34q.94,17-25.31,22.58l-32.92,7.13-14.77-68.31,32.35-7a73,73,0,0,1,11.08-1.57q10.84-.6,16.06,5a15.87,15.87,0,0,1,4.25,10.54q.42,7.78-6,14.1a14.51,14.51,0,0,1,11.82,6.57A21.14,21.14,0,0,1,180.07,239.34Zm-29.44-25.71c-.62-3-2.37-4.39-5.24-4.23a34.91,34.91,0,0,0-4.87.72l-7.8,1.69,2.47,11.53,9.13-2.05Q151.92,219.72,150.63,213.63Zm7.9,24.3q-1.16-5.13-6.91-4.81a45.19,45.19,0,0,0-6.78,1.06l-6.93,1.56,2.7,12.52,9.61-2.08Q159.83,244.11,158.53,237.93Z" transform="translate(-107.07 -134.05)"/></svg>